<svg xmlns="http://www.w3.org/2000/svg" width="301" height="275.251" viewBox="0 0 301 275.251">
  <g id="Book_lover-amico" data-name="Book lover-amico" transform="translate(-24.19 -55.68)">
    <g id="Floor--inject-714" transform="translate(24.19 157.155)">
      <ellipse id="floor--inject-714-2" data-name="floor--inject-714" cx="150.5" cy="86.888" rx="150.5" ry="86.888" transform="translate(0 0)" fill="#f5f5f5"/>
    </g>
    <g id="Shadows--inject-714" transform="translate(46.162 191.539)">
      <path id="Shadow--inject-714" d="M190.28,405.773l51.374-29.819-38.62-22.3-3.516-5.486s-18.918-4.058-25.09-.972-38.672,14.763-38.672,14.763S81,318.526,77.109,316.3,50.3,328.253,60.434,337.973s30.661,21.769,40.075,25.873,25.56,8,25.56,8-2.557,3.6,4.951,9.133,40.192,20.543,44.661,22.037c5.049,1.683,11.129.776,11.129.776Z" transform="translate(-57.871 -282.057)" fill="#e0e0e0"/>
      <path id="shadow--inject-714-2" data-name="shadow--inject-714" d="M412.3,307.758l-35.071,20.223a1.957,1.957,0,0,1-1.748,0l-73.678-42.606c-.483-.281-.483-.731,0-1l35.077-20.223a1.9,1.9,0,0,1,1.742,0l73.717,42.6A.542.542,0,0,1,412.3,307.758Z" transform="translate(-142.547 -263.937)" fill="#e0e0e0"/>
    </g>
    <g id="Books--inject-714" transform="translate(212.566 143.547)">
      <g id="books--inject-714-2" data-name="books--inject-714" transform="translate(0 0)">
        <path id="Path_954" data-name="Path 954" d="M344.808,191.34l-30.5,17.483v51.719l30.5-17.483Z" transform="translate(-313.423 -190.707)" fill="#1e5d89"/>
        <path id="Path_955" data-name="Path 955" d="M344.808,191.34l-30.5,17.483v51.719l30.5-17.483Z" transform="translate(-313.423 -190.707)" opacity="0.35"/>
        <path id="Path_956" data-name="Path 956" d="M315.64,210.463l29.63-16.883a10.794,10.794,0,0,0,5.976,3.262l-29.4,16.844S320.167,213.294,315.64,210.463Z" transform="translate(-313.885 -191.486)" fill="#f5f5f5"/>
        <path id="Path_957" data-name="Path 957" d="M323.421,212.479a5.545,5.545,0,0,1-5.023,0l-4.4-2.544c-1.39-.8-1.39-2.094,0-2.9L343.24,190.37l1.1.652-28.828,16.511a.915.915,0,0,0,0,1.735l4.1,2.335a3.314,3.314,0,0,0,3.014,0l28.815-16.485,1.239.718Z" transform="translate(-312.951 -190.37)" fill="#1e5d89"/>
        <path id="Path_958" data-name="Path 958" d="M323.421,212.479a5.545,5.545,0,0,1-5.023,0l-4.4-2.544c-1.39-.8-1.39-2.094,0-2.9L343.24,190.37l1.1.652-28.828,16.511a.915.915,0,0,0,0,1.735l4.1,2.335a3.314,3.314,0,0,0,3.014,0l28.815-16.485,1.239.718Z" transform="translate(-312.951 -190.37)" opacity="0.25"/>
        <path id="Path_959" data-name="Path 959" d="M352.666,198.72v51.719L323.42,267.1a5.584,5.584,0,0,1-5.023,0l-4.41-2.544a1.768,1.768,0,0,1-1.037-1.448V211.389a1.768,1.768,0,0,0,1.037,1.448l4.41,2.551a5.584,5.584,0,0,0,5.023,0Z" transform="translate(-312.95 -193.273)" fill="#1e5d89"/>
        <path id="Path_960" data-name="Path 960" d="M352.666,198.72v51.719L323.42,267.1a5.584,5.584,0,0,1-5.023,0l-4.41-2.544a1.768,1.768,0,0,1-1.037-1.448V211.389a1.768,1.768,0,0,0,1.037,1.448l4.41,2.551a5.584,5.584,0,0,0,5.023,0Z" transform="translate(-312.95 -193.273)" opacity="0.05"/>
        <path id="Path_961" data-name="Path 961" d="M320.909,222.739a5.147,5.147,0,0,1-2.512-.6l-4.41-2.551a1.768,1.768,0,0,1-1.037-1.448v51.719a1.768,1.768,0,0,0,1.037,1.448l4.41,2.544a5.147,5.147,0,0,0,2.512.6Z" transform="translate(-312.95 -200.024)" fill="#1e5d89"/>
        <path id="Path_962" data-name="Path 962" d="M320.909,222.739a5.147,5.147,0,0,1-2.512-.6l-4.41-2.551a1.768,1.768,0,0,1-1.037-1.448v51.719a1.768,1.768,0,0,0,1.037,1.448l4.41,2.544a5.147,5.147,0,0,0,2.512.6Z" transform="translate(-312.95 -200.024)" opacity="0.2"/>
        <path id="Path_963" data-name="Path 963" d="M358.827,209.34,333.28,224.188v48.895l25.547-14.841Z" transform="translate(-320.017 -196.965)" fill="#1e5d89"/>
        <path id="Path_964" data-name="Path 964" d="M358.827,209.34,333.28,224.188v48.895l25.547-14.841Z" transform="translate(-320.017 -196.965)" fill="#fff" opacity="0.55"/>
        <path id="Path_965" data-name="Path 965" d="M334.54,225.734l24.725-14.274a10.4,10.4,0,0,0,5.656,3.112l-24.516,14.2S338.82,228.415,334.54,225.734Z" transform="translate(-320.455 -197.702)" fill="#f5f5f5"/>
        <path id="Path_966" data-name="Path 966" d="M341.9,227.649a5.219,5.219,0,0,1-4.749,0l-4.162-2.407c-1.3-.757-1.3-1.957,0-2.74l24.366-14.071,1.031.594-23.968,13.928a.868.868,0,0,0,0,1.644l3.868,2.2a3.138,3.138,0,0,0,2.851,0l23.955-13.9,1.174.652Z" transform="translate(-319.576 -196.648)" fill="#1e5d89"/>
        <path id="Path_967" data-name="Path 967" d="M341.9,227.649a5.219,5.219,0,0,1-4.749,0l-4.162-2.407c-1.3-.757-1.3-1.957,0-2.74l24.366-14.071,1.031.594-23.968,13.928a.868.868,0,0,0,0,1.644l3.868,2.2a3.138,3.138,0,0,0,2.851,0l23.955-13.9,1.174.652Z" transform="translate(-319.576 -196.648)" fill="#fff" opacity="0.8"/>
        <path id="Path_968" data-name="Path 968" d="M366.262,216.32v48.895L341.9,279.286a5.219,5.219,0,0,1-4.749,0l-4.169-2.407a1.657,1.657,0,0,1-.979-1.37V226.582a1.67,1.67,0,0,0,.979,1.37l4.169,2.407a5.219,5.219,0,0,0,4.749,0Z" transform="translate(-319.573 -199.391)" fill="#1e5d89"/>
        <path id="Path_969" data-name="Path 969" d="M366.262,216.32v48.895L341.9,279.286a5.219,5.219,0,0,1-4.749,0l-4.169-2.407a1.657,1.657,0,0,1-.979-1.37V226.582a1.67,1.67,0,0,0,.979,1.37l4.169,2.407a5.219,5.219,0,0,0,4.749,0Z" transform="translate(-319.573 -199.391)" fill="#fff" opacity="0.7"/>
        <path id="Path_970" data-name="Path 970" d="M339.522,236.445a4.841,4.841,0,0,1-2.375-.568l-4.169-2.407A1.67,1.67,0,0,1,332,232.1v48.927a1.657,1.657,0,0,0,.978,1.37l4.169,2.407a4.841,4.841,0,0,0,2.375.568Z" transform="translate(-319.573 -204.877)" fill="#1e5d89"/>
        <path id="Path_971" data-name="Path 971" d="M339.522,236.445a4.841,4.841,0,0,1-2.375-.568l-4.169-2.407A1.67,1.67,0,0,1,332,232.1v48.927a1.657,1.657,0,0,0,.978,1.37l4.169,2.407a4.841,4.841,0,0,0,2.375.568Z" transform="translate(-319.573 -204.877)" fill="#fff" opacity="0.55"/>
        <path id="Path_972" data-name="Path 972" d="M403.769,222.6l.274,3.718-32.879,17.64-.744-2.166Z" transform="translate(-332.929 -201.574)" fill="#1e5d89"/>
        <path id="Path_973" data-name="Path 973" d="M403.769,222.6l.274,3.718-32.879,17.64-.744-2.166Z" transform="translate(-332.929 -201.574)" opacity="0.35"/>
        <path id="Path_974" data-name="Path 974" d="M371.09,243.544l31.848-18.384,5.539,3.2-32.475,19Z" transform="translate(-333.162 -202.464)" fill="#f5f5f5"/>
        <path id="Path_975" data-name="Path 975" d="M378.915,256.16l3.96,31.809a2.609,2.609,0,0,1-1.181,2.042L363.219,300.7a2.282,2.282,0,0,1-.959.274l10.673-41.66a2.25,2.25,0,0,0,.959-.267l1.3-.77Z" transform="translate(-330.092 -213.241)" fill="#1e5d89"/>
        <path id="Path_976" data-name="Path 976" d="M378.915,256.16l3.96,31.809a2.609,2.609,0,0,1-1.181,2.042L363.219,300.7a2.282,2.282,0,0,1-.959.274l10.673-41.66a2.25,2.25,0,0,0,.959-.267l1.3-.77Z" transform="translate(-330.092 -213.241)" opacity="0.35"/>
        <path id="Path_977" data-name="Path 977" d="M367.557,257.464l-3.294-2.818-2.42-2.075c-.248-.391-.535-.685-.378-1.011l-10.523,41.308v.039c-.157.326-.2,1.057.248,1.3L356.9,299.1a2.433,2.433,0,0,0,1.409.274l10.653-41.653a2.446,2.446,0,0,1-1.4-.254Z" transform="translate(-326.119 -211.642)" fill="#1e5d89"/>
        <path id="Path_978" data-name="Path 978" d="M367.557,257.464l-3.294-2.818-2.42-2.075c-.248-.391-.535-.685-.378-1.011l-10.523,41.308v.039c-.157.326-.2,1.057.248,1.3L356.9,299.1a2.433,2.433,0,0,0,1.409.274l10.653-41.653a2.446,2.446,0,0,1-1.4-.254Z" transform="translate(-326.119 -211.642)" opacity="0.25"/>
        <path id="Path_979" data-name="Path 979" d="M367.481,240.63c-.652.378-.489.8,0,1.363l5.715,4.893a2.609,2.609,0,0,0,2.362,0l5.023-2.9c.652-.372.77-.92.254-1.213a2.355,2.355,0,0,0-2.1.15l-3.966,2.277a.887.887,0,0,1-.789,0l-4.175-3.627c-.215-.124-.215-.326,0-.457L402.6,222.077l-1.572-.907Z" transform="translate(-331.757 -201.077)" fill="#1e5d89"/>
        <path id="Path_980" data-name="Path 980" d="M367.481,240.63c-.652.378-.489.8,0,1.363l5.715,4.893a2.609,2.609,0,0,0,2.362,0l5.023-2.9c.652-.372.77-.92.254-1.213a2.355,2.355,0,0,0-2.1.15l-3.966,2.277a.887.887,0,0,1-.789,0l-4.175-3.627c-.215-.124-.215-.326,0-.457L402.6,222.077l-1.572-.907Z" transform="translate(-331.757 -201.077)" opacity="0.15"/>
        <path id="Path_981" data-name="Path 981" d="M415.365,223.46,385.5,240.813V297.96l29.865-17.346Z" transform="translate(-338.171 -201.873)" fill="#455a64"/>
        <path id="Path_982" data-name="Path 982" d="M387,242.621l28.9-16.681a11.977,11.977,0,0,0,6.608,3.634L393.837,246.2S391.991,245.752,387,242.621Z" transform="translate(-338.693 -202.735)" fill="#f5f5f5"/>
        <path id="Path_983" data-name="Path 983" d="M395.576,244.851a6.126,6.126,0,0,1-5.552,0l-4.867-2.805c-1.533-.887-1.533-2.322,0-3.21l28.482-16.446,1.207.7-28.012,16.276a1.011,1.011,0,0,0,0,1.918l4.521,2.609a3.705,3.705,0,0,0,3.334,0l28.006-16.244,1.363.789Z" transform="translate(-337.652 -201.501)" fill="#263238"/>
        <path id="Path_984" data-name="Path 984" d="M424.058,231.61v57.153L395.576,305.2a6.126,6.126,0,0,1-5.552,0l-4.867-2.805a1.957,1.957,0,0,1-1.148-1.6V243.646a1.957,1.957,0,0,0,1.148,1.6l4.867,2.818a6.165,6.165,0,0,0,5.552,0Z" transform="translate(-337.653 -204.707)" fill="#455a64"/>
        <path id="Path_985" data-name="Path 985" d="M392.8,255.149a5.643,5.643,0,0,1-2.773-.652l-4.867-2.818a1.957,1.957,0,0,1-1.148-1.6v57.147a1.957,1.957,0,0,0,1.148,1.6l4.867,2.805a5.643,5.643,0,0,0,2.772.652Z" transform="translate(-337.653 -211.128)" fill="#37474f"/>
        <path id="Path_986" data-name="Path 986" d="M434.085,234.27,404.22,251.623v57.154l29.865-17.353Z" transform="translate(-344.679 -205.631)" fill="#1e5d89"/>
        <path id="Path_987" data-name="Path 987" d="M434.085,234.27,404.22,251.623v57.154l29.865-17.353Z" transform="translate(-344.679 -205.631)" opacity="0.35"/>
        <path id="Path_988" data-name="Path 988" d="M405.7,253.431l28.9-16.681a11.977,11.977,0,0,0,6.608,3.634L412.55,257S410.7,256.562,405.7,253.431Z" transform="translate(-345.193 -206.493)" fill="#ebebeb"/>
        <path id="Path_989" data-name="Path 989" d="M405.7,253.431l28.9-16.681a11.977,11.977,0,0,0,6.608,3.634L412.55,257S410.7,256.562,405.7,253.431Z" transform="translate(-345.193 -206.493)" fill="#f5f5f5"/>
        <path id="Path_990" data-name="Path 990" d="M414.3,255.664a6.126,6.126,0,0,1-5.552,0l-4.867-2.805c-1.533-.887-1.533-2.322,0-3.21l28.482-16.44,1.207.691-28.012,16.309a1.011,1.011,0,0,0,0,1.918l4.521,2.609a3.706,3.706,0,0,0,3.334,0l27.986-16.3,1.37.789Z" transform="translate(-344.16 -205.263)" fill="#1e5d89"/>
        <path id="Path_991" data-name="Path 991" d="M414.3,255.664a6.126,6.126,0,0,1-5.552,0l-4.867-2.805c-1.533-.887-1.533-2.322,0-3.21l28.482-16.44,1.207.691-28.012,16.309a1.011,1.011,0,0,0,0,1.918l4.521,2.609a3.706,3.706,0,0,0,3.334,0l27.986-16.3,1.37.789Z" transform="translate(-344.16 -205.263)" opacity="0.25"/>
        <path id="Path_992" data-name="Path 992" d="M442.772,242.42v57.134L414.3,316a6.165,6.165,0,0,1-5.552,0l-4.867-2.812a1.957,1.957,0,0,1-1.148-1.6V254.437a1.957,1.957,0,0,0,1.148,1.6l4.867,2.818a6.126,6.126,0,0,0,5.552,0Z" transform="translate(-344.161 -208.465)" fill="#1e5d89"/>
        <path id="Path_993" data-name="Path 993" d="M411.517,265.959a5.643,5.643,0,0,1-2.773-.652l-4.867-2.818a1.957,1.957,0,0,1-1.148-1.6v57.147a1.957,1.957,0,0,0,1.148,1.6l4.867,2.812a5.708,5.708,0,0,0,2.773.652Z" transform="translate(-344.161 -214.885)" opacity="0.15"/>
      </g>
    </g>
    <g id="Shelves--inject-714" transform="translate(38.34 55.68)">
      <g id="book-shelf--inject-714">
        <g id="Shelf--inject-714" transform="translate(0 11.049)">
          <path id="Path_994" data-name="Path 994" d="M150.05,93.005V88.8h0a1.435,1.435,0,0,0-.842-1.122L123.766,73.082a4.351,4.351,0,0,0-3.914,0l-73.11,41.96a1.429,1.429,0,0,0-.842,1.122h0v4.208h0a1.429,1.429,0,0,0,.842,1.122l25.442,14.6a4.351,4.351,0,0,0,3.914,0l73.117-41.966a1.429,1.429,0,0,0,.842-1.122Z" transform="translate(-45.887 -72.617)" fill="#f0f0f0"/>
          <path id="Path_995" data-name="Path 995" d="M46.76,117.286,72.2,131.88a4.351,4.351,0,0,0,3.914,0l73.11-41.96c1.076-.652,1.076-1.624,0-2.244L123.784,73.082a4.351,4.351,0,0,0-3.914,0l-73.11,41.96A1.183,1.183,0,0,0,46.76,117.286Z" transform="translate(-45.905 -72.617)" fill="#fafafa"/>
          <path id="Path_996" data-name="Path 996" d="M74.121,155.3v4.208a4.123,4.123,0,0,1-1.957-.463L46.722,144.453a1.455,1.455,0,0,1-.842-1.122h0v-4.214h0a1.063,1.063,0,0,1,.163-.476c-.294.541-.072,1.168.652,1.6l25.442,14.593a3.914,3.914,0,0,0,1.983.47Z" transform="translate(-45.88 -95.569)" fill="#e0e0e0"/>
        </g>
        <path id="Path_997" data-name="Path 997" d="M94.26,104.482l21.554,12.284,35.6-20.432L129.866,84.05Z" transform="translate(-62.699 -65.542)" fill="#e0e0e0"/>
        <path id="Path_998" data-name="Path 998" d="M116.535,123.54,95.751,111.609a8.637,8.637,0,0,0-.111-5.389l20.654,11.8A20.609,20.609,0,0,1,116.535,123.54Z" transform="translate(-63.178 -73.25)" fill="#fff"/>
        <path id="Path_999" data-name="Path 999" d="M114.754,115.466a4.384,4.384,0,0,1,2,3.438v4.019c0,1.266-.894,1.774-2,1.142L94.27,112.321v-.992l20.223,11.527c.652.378,1.194.072,1.194-.691V118.44a2.609,2.609,0,0,0-1.194-2.061L94.27,104.839V103.71Z" transform="translate(-62.702 -72.377)" fill="#ebebeb"/>
        <path id="Path_1000" data-name="Path 1000" d="M94.27,92.822l35.6-20.432,20.484,11.743a4.384,4.384,0,0,1,2,3.438v4.019a1.39,1.39,0,0,1-.587,1.3l-35.6,20.432a1.39,1.39,0,0,0,.587-1.3v-4.006a4.39,4.39,0,0,0-2-3.438Z" transform="translate(-62.702 -61.489)" fill="#e0e0e0"/>
        <path id="Path_1001" data-name="Path 1001" d="M127.84,113.112a4.064,4.064,0,0,1,.587,1.957v4.019a1.39,1.39,0,0,1-.587,1.3l35.6-20.432a1.39,1.39,0,0,0,.587-1.3V94.637a4.019,4.019,0,0,0-.587-1.957Z" transform="translate(-74.372 -68.543)" fill="#ebebeb"/>
        <path id="Path_1002" data-name="Path 1002" d="M94.27,89.022l21.548,12.284,35.6-20.425L129.869,68.59Z" transform="translate(-62.702 -60.168)" fill="#e0e0e0"/>
        <path id="Path_1003" data-name="Path 1003" d="M116.535,108.07,95.751,96.125a8.657,8.657,0,0,0-.111-5.4l20.654,11.8A20.912,20.912,0,0,1,116.535,108.07Z" transform="translate(-63.178 -67.865)" fill="#fff"/>
        <path id="Path_1004" data-name="Path 1004" d="M114.754,100.006a4.384,4.384,0,0,1,2,3.438v4.019c0,1.266-.894,1.781-2,1.148L94.27,96.868V95.857l20.223,11.527c.652.378,1.2.072,1.2-.652v-3.725a2.609,2.609,0,0,0-1.2-2.061L94.27,89.392V88.25Z" transform="translate(-62.702 -67.003)" fill="#ebebeb"/>
        <path id="Path_1005" data-name="Path 1005" d="M94.27,77.365l35.6-20.425,20.484,11.743a4.384,4.384,0,0,1,2,3.438v4.019a1.4,1.4,0,0,1-.587,1.3l-35.6,20.425a1.389,1.389,0,0,0,.587-1.3V92.546a4.384,4.384,0,0,0-2-3.438Z" transform="translate(-62.702 -56.118)" fill="#fafafa"/>
        <path id="Path_1006" data-name="Path 1006" d="M127.84,97.655a4.09,4.09,0,0,1,.587,1.957v4.019a1.39,1.39,0,0,1-.587,1.3l35.593-20.445a1.4,1.4,0,0,0,.587-1.3v-4a4,4,0,0,0-.587-1.957Z" transform="translate(-74.372 -63.172)" fill="#f0f0f0"/>
        <path id="Path_1007" data-name="Path 1007" d="M80.26,56.49l22.924,13.243v43.61L80.26,100.107Z" transform="translate(-57.832 -55.962)" fill="#e0e0e0"/>
        <path id="Path_1008" data-name="Path 1008" d="M99.746,71.114,77.565,58.38a9.335,9.335,0,0,1-5.075,2.779l22,12.675S95.9,73.5,99.746,71.114Z" transform="translate(-55.131 -56.619)" fill="#fff"/>
        <path id="Path_1009" data-name="Path 1009" d="M91.277,72.85a4.71,4.71,0,0,0,4.26,0l3.738-2.14a1.29,1.29,0,0,0,0-2.446L77.408,55.68l-.926.528L98.009,68.6a.776.776,0,0,1,0,1.468l-3.477,1.957a2.844,2.844,0,0,1-2.557,0L70.44,59.672l-1.05.6Z" transform="translate(-54.053 -55.68)" fill="#fafafa"/>
        <path id="Path_1010" data-name="Path 1010" d="M69.42,62.72v43.61l21.867,12.545a4.71,4.71,0,0,0,4.26,0l3.738-2.14a1.494,1.494,0,0,0,.881-1.226V71.9a1.474,1.474,0,0,1-.881,1.22L95.547,75.3a4.756,4.756,0,0,1-4.26,0Z" transform="translate(-54.063 -58.127)" fill="#e0e0e0"/>
        <path id="Path_1011" data-name="Path 1011" d="M106.2,80.665a4.423,4.423,0,0,0,2.133-.5l3.738-2.153a1.474,1.474,0,0,0,.881-1.22V120.4a1.494,1.494,0,0,1-.881,1.226l-3.738,2.14a4.351,4.351,0,0,1-2.133.509Z" transform="translate(-66.85 -63.019)" fill="#ebebeb"/>
        <path id="Path_1012" data-name="Path 1012" d="M65.89,64.74,88.814,77.983v43.61L65.89,108.357Z" transform="translate(-52.836 -58.83)" fill="#ebebeb"/>
        <path id="Path_1013" data-name="Path 1013" d="M85.376,79.364,63.2,66.63a9.335,9.335,0,0,1-5.075,2.779L80.111,82.084S81.527,81.752,85.376,79.364Z" transform="translate(-50.135 -59.487)" fill="#fff"/>
        <path id="Path_1014" data-name="Path 1014" d="M76.917,81.068a4.71,4.71,0,0,0,4.26,0l3.738-2.14a1.29,1.29,0,0,0,0-2.446L63.048,63.93l-.926.528L83.65,76.853a.77.77,0,0,1,0,1.468l-3.471,1.957a2.844,2.844,0,0,1-2.557,0l-21.5-12.395-1.076.659Z" transform="translate(-49.068 -58.548)" fill="#fafafa"/>
        <path id="Path_1015" data-name="Path 1015" d="M55.05,71v43.61l21.867,12.545a4.71,4.71,0,0,0,4.26,0l3.738-2.14a1.494,1.494,0,0,0,.881-1.226V80.133a1.474,1.474,0,0,1-.881,1.22l-3.738,2.153a4.756,4.756,0,0,1-4.26,0Z" transform="translate(-49.068 -61.006)" fill="#ebebeb"/>
        <path id="Path_1016" data-name="Path 1016" d="M91.83,88.914a4.423,4.423,0,0,0,2.133-.5L97.7,86.259A1.474,1.474,0,0,0,98.582,85v43.61a1.494,1.494,0,0,1-.881,1.226l-3.738,2.14a4.351,4.351,0,0,1-2.133.509Z" transform="translate(-61.854 -65.873)" fill="#f0f0f0"/>
      </g>
      <g id="book-shelf--inject-714-2" data-name="book-shelf--inject-714" transform="translate(174.905 0.033)">
        <g id="shelf--inject-714-2" data-name="shelf--inject-714" transform="translate(0 11.015)">
          <path id="Path_1017" data-name="Path 1017" d="M314,93V88.8h0a1.435,1.435,0,0,1,.842-1.122L340.28,73.081a4.338,4.338,0,0,1,3.914,0l73.117,41.96a1.429,1.429,0,0,1,.842,1.122h0v4.208h0a1.429,1.429,0,0,1-.842,1.122l-25.442,14.6a4.338,4.338,0,0,1-3.914,0L314.832,94.127A1.429,1.429,0,0,1,313.99,93Z" transform="translate(-313.99 -72.615)" fill="#f0f0f0"/>
          <path id="Path_1018" data-name="Path 1018" d="M417.31,117.285l-25.442,14.593a4.338,4.338,0,0,1-3.914,0l-73.1-41.96c-1.076-.652-1.076-1.624,0-2.244l25.442-14.593a4.338,4.338,0,0,1,3.914,0l73.117,41.96A1.183,1.183,0,0,1,417.31,117.285Z" transform="translate(-314.008 -72.615)" fill="#fafafa"/>
          <path id="Path_1019" data-name="Path 1019" d="M430.36,155.3v4.208a4.123,4.123,0,0,0,1.957-.463l25.442-14.593a1.429,1.429,0,0,0,.842-1.122h0v-4.214h0a1.05,1.05,0,0,0-.157-.476c.294.541.072,1.168-.685,1.6l-25.442,14.593a3.875,3.875,0,0,1-1.957.47Z" transform="translate(-354.445 -95.568)" fill="#e0e0e0"/>
        </g>
        <path id="Path_1020" data-name="Path 1020" d="M394.817,104.482l-21.548,12.284-35.6-20.432L359.218,84.05Z" transform="translate(-322.222 -65.575)" fill="#e0e0e0"/>
        <path id="Path_1021" data-name="Path 1021" d="M391.842,123.54l20.791-11.932a8.638,8.638,0,0,1,.111-5.388l-20.654,11.8S391.692,119.319,391.842,123.54Z" transform="translate(-341.043 -73.282)" fill="#fff"/>
        <path id="Path_1022" data-name="Path 1022" d="M392.8,115.473a4.371,4.371,0,0,0-2,3.438v4.019c0,1.266.894,1.774,2,1.142l20.484-11.743v-.992l-20.223,11.527c-.652.378-1.2.072-1.2-.691v-3.725a2.609,2.609,0,0,1,1.2-2.061l20.191-11.527V103.73Z" transform="translate(-340.692 -72.417)" fill="#ebebeb"/>
        <path id="Path_1023" data-name="Path 1023" d="M394.315,92.822l-35.6-20.432L338.231,84.133a4.384,4.384,0,0,0-2,3.438v4.019a1.4,1.4,0,0,0,.581,1.3l35.6,20.432a1.4,1.4,0,0,1-.581-1.3v-4.006a4.384,4.384,0,0,1,2-3.438Z" transform="translate(-321.72 -61.522)" fill="#e0e0e0"/>
        <path id="Path_1024" data-name="Path 1024" d="M372.411,113.112a4,4,0,0,0-.587,1.957v4.019a1.4,1.4,0,0,0,.581,1.3l-35.6-20.432a1.4,1.4,0,0,1-.581-1.3V94.637a4.077,4.077,0,0,1,.581-1.957Z" transform="translate(-321.716 -68.575)" fill="#ebebeb"/>
        <path id="Path_1025" data-name="Path 1025" d="M394.817,89.022l-21.548,12.284-35.6-20.425L359.218,68.59Z" transform="translate(-322.222 -60.201)" fill="#e0e0e0"/>
        <path id="Path_1026" data-name="Path 1026" d="M391.842,108.07l20.791-11.945a8.611,8.611,0,0,1,.111-5.4l-20.654,11.8A20.617,20.617,0,0,0,391.842,108.07Z" transform="translate(-341.043 -67.897)" fill="#fff"/>
        <path id="Path_1027" data-name="Path 1027" d="M392.8,100.006a4.384,4.384,0,0,0-2,3.438v4.019c0,1.266.894,1.781,2,1.148l20.491-11.743V95.857l-20.223,11.527c-.652.378-1.2.072-1.2-.652v-3.725a2.609,2.609,0,0,1,1.2-2.061l20.223-11.553V88.25Z" transform="translate(-340.692 -67.035)" fill="#ebebeb"/>
        <path id="Path_1028" data-name="Path 1028" d="M394.312,77.365l-35.6-20.425L338.228,68.722a4.39,4.39,0,0,0-2,3.438v4.019a1.409,1.409,0,0,0,.587,1.3l35.6,20.425a1.4,1.4,0,0,1-.587-1.3V92.585a4.384,4.384,0,0,1,2-3.438Z" transform="translate(-321.717 -56.151)" fill="#fafafa"/>
        <path id="Path_1029" data-name="Path 1029" d="M372.412,97.655a4.018,4.018,0,0,0-.587,1.957v4.019a1.4,1.4,0,0,0,.587,1.3l-35.6-20.445a1.409,1.409,0,0,1-.587-1.3v-4a4.064,4.064,0,0,1,.587-1.957Z" transform="translate(-321.717 -63.204)" fill="#f0f0f0"/>
        <path id="Path_1030" data-name="Path 1030" d="M427.064,56.49,404.14,69.733v43.61l22.924-13.236Z" transform="translate(-345.33 -55.994)" fill="#e0e0e0"/>
        <path id="Path_1031" data-name="Path 1031" d="M405.27,71.114,427.45,58.38a9.316,9.316,0,0,0,5.069,2.779L410.528,73.834S409.106,73.5,405.27,71.114Z" transform="translate(-345.722 -56.651)" fill="#fff"/>
        <path id="Path_1032" data-name="Path 1032" d="M411.866,72.868a4.723,4.723,0,0,1-4.266,0l-3.732-2.14a1.288,1.288,0,0,1,0-2.446L425.729,55.73l.933.528L405.134,68.653a.776.776,0,0,0,0,1.468l3.471,1.957a2.857,2.857,0,0,0,2.564,0l21.5-12.395,1.05.6Z" transform="translate(-344.927 -55.73)" fill="#fafafa"/>
        <path id="Path_1033" data-name="Path 1033" d="M433.729,62.72v43.61l-21.861,12.545a4.723,4.723,0,0,1-4.266,0l-3.731-2.14a1.494,1.494,0,0,1-.881-1.226V71.9a1.474,1.474,0,0,0,.881,1.22l3.731,2.153a4.769,4.769,0,0,0,4.266,0Z" transform="translate(-344.93 -58.16)" fill="#e0e0e0"/>
        <path id="Path_1034" data-name="Path 1034" d="M409.739,80.665a4.462,4.462,0,0,1-2.133-.5l-3.732-2.153A1.474,1.474,0,0,1,403,76.79V120.4a1.494,1.494,0,0,0,.881,1.226l3.732,2.14a4.39,4.39,0,0,0,2.133.509Z" transform="translate(-344.933 -63.051)" fill="#ebebeb"/>
        <path id="Path_1035" data-name="Path 1035" d="M441.434,64.74,418.51,77.983v43.61l22.924-13.236Z" transform="translate(-350.325 -58.862)" fill="#ebebeb"/>
        <path id="Path_1036" data-name="Path 1036" d="M419.64,79.364,441.82,66.63a9.342,9.342,0,0,0,5.069,2.779L424.9,82.084S423.476,81.752,419.64,79.364Z" transform="translate(-350.718 -59.519)" fill="#fff"/>
        <path id="Path_1037" data-name="Path 1037" d="M426.266,81.068a4.723,4.723,0,0,1-4.266,0l-3.731-2.14a1.288,1.288,0,0,1,0-2.446L440.135,63.93l.926.528L419.534,76.853a.776.776,0,0,0,0,1.468L423,80.278a2.857,2.857,0,0,0,2.564,0l21.5-12.395,1.05.6Z" transform="translate(-349.933 -58.581)" fill="#fafafa"/>
        <path id="Path_1038" data-name="Path 1038" d="M448.11,71v43.61l-21.841,12.525a4.723,4.723,0,0,1-4.266,0L418.271,125a1.494,1.494,0,0,1-.881-1.226V80.133a1.475,1.475,0,0,0,.881,1.22L422,83.506a4.769,4.769,0,0,0,4.266,0Z" transform="translate(-349.936 -61.038)" fill="#ebebeb"/>
        <path id="Path_1039" data-name="Path 1039" d="M424.105,88.914a4.462,4.462,0,0,1-2.133-.5l-3.732-2.153A1.474,1.474,0,0,1,417.36,85v43.61a1.494,1.494,0,0,0,.881,1.226l3.731,2.14a4.391,4.391,0,0,0,2.133.509Z" transform="translate(-349.925 -65.905)" fill="#f0f0f0"/>
      </g>
    </g>
    <g id="speech-bubble--inject-714" transform="translate(150.866 91.868)">
      <g id="speach-bubble--inject-714" transform="translate(0)">
        <path id="Path_1040" data-name="Path 1040" d="M247.071,191.8l-3.131-5.871,2.525-7.3V174.17l-7.724,4.456v4.462l3.321,5.747a.47.47,0,0,0,.222.2h0Z" transform="translate(-225.451 -133.06)" fill="#1e5d89"/>
        <path id="Path_1041" data-name="Path 1041" d="M247.071,191.8l-3.131-5.871,2.525-7.3V174.17l-7.724,4.456v4.462l3.321,5.747a.47.47,0,0,0,.222.2h0Z" transform="translate(-225.451 -133.06)" opacity="0.2"/>
        <path id="Path_1042" data-name="Path 1042" d="M258.439,116.813a5.115,5.115,0,0,0-2.316-4.012l-1.885-1.1a5.127,5.127,0,0,0-4.632,0L220.7,128.425a5.108,5.108,0,0,0-2.309,4.012v31.8a5.115,5.115,0,0,0,2.309,4.012l1.885,1.089a5.128,5.128,0,0,0,4.632,0l9.3-5.375,3.314,5.741a.5.5,0,0,0,.894-.085l3.5-10.112,11.9-6.889a5.121,5.121,0,0,0,2.316-4.012Z" transform="translate(-218.377 -111.153)" fill="#1e5d89"/>
        <path id="Path_1043" data-name="Path 1043" d="M218.383,174.376a5.114,5.114,0,0,0,2.309,4.012l1.885,1.089a5.167,5.167,0,0,0,4.234.183c-1.089.411-1.918-.2-1.918-1.52V146.331a4.73,4.73,0,0,1,.652-2.277l-6.524-3.764a4.742,4.742,0,0,0-.652,2.283Z" transform="translate(-218.37 -121.282)" opacity="0.2"/>
        <path id="Path_1044" data-name="Path 1044" d="M258.718,116.157c-.267-.985-1.161-1.3-2.231-.652l-28.913,16.72a4.566,4.566,0,0,0-1.631,1.729L219.42,130.2a4.566,4.566,0,0,1,1.631-1.729l28.913-16.759a5.167,5.167,0,0,1,4.632,0l1.892,1.1A5.082,5.082,0,0,1,258.718,116.157Z" transform="translate(-218.735 -111.155)" fill="#fff" opacity="0.5"/>
        <path id="Path_1045" data-name="Path 1045" d="M239.14,152.744a14.88,14.88,0,0,1,1.213-5.721h0v-.039a10.021,10.021,0,0,1,3.653-4.671c2.5-1.474,4.567,1.514,4.906,5.036.3-3.914,2.342-9.3,4.834-10.764a2.727,2.727,0,0,1,3.679.365h0a6.563,6.563,0,0,1,1.259,4.273c0,5.95-3.555,11.351-6.524,17.033l-3.262,5.486-3.118-1.755C242.78,159.874,239.166,158.7,239.14,152.744Z" transform="translate(-225.59 -119.808)" fill="#fafafa"/>
      </g>
    </g>
    <g id="Character--inject-714" transform="translate(28.397 142.49)">
      <g id="character--inject-714-2" data-name="character--inject-714" transform="translate(0 0)">
        <path id="Path_1046" data-name="Path 1046" d="M263.075,331.187s-2.081-11.345-4.951-23.355c-2.433-10.151-9.3-17.157-22.024-13.465l12.036,41.014a10.51,10.51,0,0,0,7.006,7.515l7.933,2.525,24.177,8.866,2.446-7.62C286.4,344.73,263.075,331.187,263.075,331.187Z" transform="translate(-102.065 -225.12)" fill="#ffa8a7"/>
        <path id="Path_1047" data-name="Path 1047" d="M232.34,294.2s8.161-2.074,12.127-1,9.061,2.564,11.814,11.377a184.075,184.075,0,0,1,4.7,20.51s-3.823,6.928-15.989,5.7Z" transform="translate(-100.758 -224.955)" fill="#1e5d89"/>
        <g id="Book--inject-714" transform="translate(118.091 115.742)">
          <path id="Path_1048" data-name="Path 1048" d="M244.128,419.2l50.826-29.343L262.486,371.11,211.66,400.453Z" transform="translate(-211.66 -367.887)" fill="#1e5d89"/>
          <path id="Path_1049" data-name="Path 1049" d="M244.128,419.2l50.826-29.343L262.486,371.11,211.66,400.453Z" transform="translate(-211.66 -367.887)" opacity="0.15"/>
          <path id="Path_1050" data-name="Path 1050" d="M299.35,411.978v-.913c0-1.116,2-4.312,4.488-5.754l20.191-11.651v4.071Z" transform="translate(-242.144 -375.727)" fill="#f5f5f5"/>
          <path id="Path_1051" data-name="Path 1051" d="M307.468,384.107l-20.191,11.658c-2.492,1.435-4.495,4.632-4.488,5.747v.913L251.73,384.492h0v-.907c0-1.122,2-4.319,4.488-5.754L276.4,366.18h0Z" transform="translate(-225.59 -366.173)" fill="#fafafa"/>
          <path id="Path_1052" data-name="Path 1052" d="M307.468,384.1l-20.191,11.658c-2.492,1.435-4.495,4.632-4.488,5.747v.913L251.73,384.488h0v-.907c0-1.122,2-4.319,4.488-5.754l20.191-11.658Z" transform="translate(-225.59 -366.17)" fill="#fafafa"/>
          <path id="Path_1053" data-name="Path 1053" d="M296.938,419.017l-1.957-1.116-2.551-1.474a5,5,0,0,1,3.138.45A2.609,2.609,0,0,1,296.938,419.017Z" transform="translate(-239.739 -383.613)" fill="#f0f0f0"/>
          <path id="Path_1054" data-name="Path 1054" d="M296.938,419.017l-1.957-1.116-2.551-1.474a5,5,0,0,1,3.138.45A2.609,2.609,0,0,1,296.938,419.017Z" transform="translate(-239.739 -383.613)" fill="#e0e0e0"/>
          <path id="Path_1055" data-name="Path 1055" d="M244.135,435.68l-.006-.848L211.66,416.09v.842Z" transform="translate(-211.66 -383.524)" fill="#1e5d89"/>
          <path id="Path_1056" data-name="Path 1056" d="M244.135,435.68l-.006-.848L211.66,416.09v.842Z" transform="translate(-211.66 -383.524)" opacity="0.3"/>
          <path id="Path_1057" data-name="Path 1057" d="M261.437,430.031l50.826-29.343-.007-.848L261.43,429.183Z" transform="translate(-228.962 -377.875)" fill="#1e5d89"/>
          <path id="Path_1058" data-name="Path 1058" d="M286.154,419.723c0-1.115-2.055-2.048-4.567-.62L261.41,430.669v4.182l24.738-14.28S286.167,420.845,286.154,419.723Z" transform="translate(-228.955 -384.319)" fill="#f5f5f5"/>
          <path id="Path_1059" data-name="Path 1059" d="M244.879,431.845v-4.182L213.82,409.73v4.182Z" transform="translate(-212.411 -381.313)" fill="#ebebeb"/>
          <path id="Path_1060" data-name="Path 1060" d="M265.063,409.484l-.907.522L244.879,421.05l-27.438-15.839-3.621-2.094L234,391.55c1.827-1.05,2.851-.972,3.575-.561h0l31.483,18.175C267.927,408.512,266.6,408.668,265.063,409.484Z" transform="translate(-212.411 -374.7)" fill="#fafafa"/>
          <path id="Path_1061" data-name="Path 1061" d="M259.26,426.828l17.19-9.916.907-.522.659.385-.907.515-17.183,9.916Z" transform="translate(-228.208 -383.628)" fill="#e0e0e0"/>
          <path id="Path_1062" data-name="Path 1062" d="M256.83,425.421l17.19-9.916.9-.515.665.378-.907.522-17.19,9.916Z" transform="translate(-227.363 -383.142)" fill="#e0e0e0"/>
          <path id="Path_1063" data-name="Path 1063" d="M254.4,424.018l17.183-9.916.907-.522.659.385-.9.515-17.19,9.916Z" transform="translate(-226.518 -382.652)" fill="#e0e0e0"/>
          <path id="Path_1064" data-name="Path 1064" d="M251.96,422.611l17.19-9.916.907-.515.659.378-.907.522L252.625,423Z" transform="translate(-225.67 -382.165)" fill="#e0e0e0"/>
          <path id="Path_1065" data-name="Path 1065" d="M249.53,421.208l17.19-9.916.9-.522.665.385-.907.515-17.19,9.916Z" transform="translate(-224.825 -381.675)" fill="#e0e0e0"/>
          <path id="Path_1066" data-name="Path 1066" d="M247.1,419.8l17.183-9.916.907-.515.665.378-.907.522-17.19,9.916Z" transform="translate(-223.98 -381.188)" fill="#e0e0e0"/>
          <path id="Path_1067" data-name="Path 1067" d="M244.66,418.4l17.19-9.916.907-.522.659.385-.9.515-17.19,9.916Z" transform="translate(-223.132 -380.698)" fill="#e0e0e0"/>
          <path id="Path_1068" data-name="Path 1068" d="M242.23,416.991l17.19-9.916.907-.515.659.378-.907.522L242.9,417.376Z" transform="translate(-222.287 -380.211)" fill="#e0e0e0"/>
          <path id="Path_1069" data-name="Path 1069" d="M239.8,415.588l17.19-9.916.9-.522.665.385-.907.515-17.19,9.922Z" transform="translate(-221.443 -379.721)" fill="#e0e0e0"/>
          <path id="Path_1070" data-name="Path 1070" d="M237.37,414.188l17.183-9.922.907-.515.659.378-.9.522-17.19,9.916Z" transform="translate(-220.598 -379.234)" fill="#e0e0e0"/>
          <path id="Path_1071" data-name="Path 1071" d="M234.93,412.781l17.19-9.916.907-.515.659.378-.907.515L235.6,413.166Z" transform="translate(-219.75 -378.748)" fill="#e0e0e0"/>
          <path id="Path_1072" data-name="Path 1072" d="M232.5,411.378l17.19-9.922.9-.515.665.385-.907.515-17.19,9.916Z" transform="translate(-218.905 -378.257)" fill="#e0e0e0"/>
          <path id="Path_1073" data-name="Path 1073" d="M230.07,409.971l17.183-9.916.907-.515.659.378-.9.515-17.19,9.922Z" transform="translate(-218.06 -377.771)" fill="#e0e0e0"/>
          <path id="Path_1074" data-name="Path 1074" d="M227.63,408.568l17.19-9.922.907-.515.659.385-.9.515-17.19,9.916Z" transform="translate(-217.212 -377.281)" fill="#e0e0e0"/>
          <path id="Path_1075" data-name="Path 1075" d="M225.2,407.161l17.19-9.916.907-.515.659.378-.907.515-17.183,9.922Z" transform="translate(-216.367 -376.794)" fill="#e0e0e0"/>
          <path id="Path_1076" data-name="Path 1076" d="M222.77,405.758l17.19-9.922.9-.515.659.385-.9.515-17.19,9.916Z" transform="translate(-215.522 -376.304)" fill="#e0e0e0"/>
          <path id="Path_1077" data-name="Path 1077" d="M220.34,404.351l17.183-9.916.907-.515.659.378-.9.522L221,404.736Z" transform="translate(-214.678 -375.817)" fill="#e0e0e0"/>
          <path id="Path_1078" data-name="Path 1078" d="M268.023,408.444c-.372.039-1.161.294-1.6.391a46.229,46.229,0,0,0-8.174,3.445c-4.143,2.074-8.044,4.286-8.044,4.286L221.79,400.178l15-8.579a6.379,6.379,0,0,1,1.846-.77,3.972,3.972,0,0,1,1.3.444l.2-.346.228.111,31.457,18.168a5.134,5.134,0,0,0-3.81-.763Z" transform="translate(-215.182 -374.743)" opacity="0.1"/>
          <path id="Path_1079" data-name="Path 1079" d="M259.77,437.786l3.079-1.566-3.06,1.866-3.079-1.774Z" transform="translate(-227.321 -390.522)" fill="#e6e6e6"/>
          <path id="Path_1080" data-name="Path 1080" d="M258.047,439.866l5.649-3.255-5.643,3.04L251.7,436.2Z" transform="translate(-225.579 -390.515)" fill="#e6e6e6"/>
          <path id="Path_1081" data-name="Path 1081" d="M213.82,411.15l4.749,2.864-4.749-2.427Z" transform="translate(-212.411 -381.807)" fill="#e6e6e6"/>
          <path id="Path_1082" data-name="Path 1082" d="M213.827,413.65l7.052,4.312-7.059-3.921Z" transform="translate(-212.411 -382.676)" fill="#e6e6e6"/>
          <path id="Path_1083" data-name="Path 1083" d="M266.623,406.935a10.343,10.343,0,0,0-1.207.2,46.32,46.32,0,0,0-8.174,3.445c-4.143,2.074-8.05,4.292-8.05,4.292L218.12,396.947s11.821-6.8,16.459-7.7a6.252,6.252,0,0,1,4.325.339h0l30.85,17.81A5,5,0,0,0,266.623,406.935Z" transform="translate(-213.906 -374.121)" fill="#f5f5f5"/>
          <path id="Path_1084" data-name="Path 1084" d="M281.778,413.715a5.043,5.043,0,0,0-3.138-.457,12.057,12.057,0,0,0-1.207.209,29.787,29.787,0,0,0-5.075,1.957c-1.011.463-2.062.972-3.1,1.494-2.492,1.246-4.9,2.544-6.419,3.386l.7.4c1.52-.835,3.914-2.133,6.419-3.379,1.037-.522,2.088-1.031,3.1-1.5a29.648,29.648,0,0,1,5.075-1.957,9.117,9.117,0,0,1,1.213-.209,5.082,5.082,0,0,1,3.131.45Z" transform="translate(-229.452 -382.513)" fill="#e0e0e0"/>
          <path id="Path_1085" data-name="Path 1085" d="M279.345,412.348a5.056,5.056,0,0,0-3.138-.45,10.677,10.677,0,0,0-1.213.2,30.338,30.338,0,0,0-5.075,1.957c-1.011.463-2.061.979-3.1,1.494-2.492,1.253-4.9,2.551-6.419,3.386l.7.4c1.52-.835,3.914-2.133,6.419-3.379,1.037-.522,2.094-1.031,3.105-1.494a29.736,29.736,0,0,1,5.069-1.957,10.773,10.773,0,0,1,1.213-.209,5.043,5.043,0,0,1,3.138.457Z" transform="translate(-228.604 -382.04)" fill="#e0e0e0"/>
          <path id="Path_1086" data-name="Path 1086" d="M276.919,410.945a5.043,5.043,0,0,0-3.138-.457,10.784,10.784,0,0,0-1.213.209,29.611,29.611,0,0,0-5.069,1.957c-1.011.47-2.061.979-3.1,1.5-2.486,1.207-4.9,2.512-6.4,3.366l.711.411c1.52-.842,3.914-2.14,6.419-3.386,1.037-.522,2.088-1.031,3.1-1.494A29.561,29.561,0,0,1,273.3,411.1a12.045,12.045,0,0,1,1.207-.209,5.043,5.043,0,0,1,3.138.457Z" transform="translate(-227.77 -381.55)" fill="#e0e0e0"/>
          <path id="Path_1087" data-name="Path 1087" d="M274.468,409.535a5.043,5.043,0,0,0-3.138-.457,12.058,12.058,0,0,0-1.207.209,29.558,29.558,0,0,0-5.075,1.957c-1.011.463-2.061.972-3.1,1.494-2.492,1.246-4.9,2.544-6.419,3.386l.7.4c1.52-.835,3.914-2.133,6.419-3.386,1.037-.515,2.088-1.024,3.1-1.494a30.334,30.334,0,0,1,5.075-1.957,10.349,10.349,0,0,1,1.207-.2,5.05,5.05,0,0,1,3.138.45Z" transform="translate(-226.911 -381.06)" fill="#e0e0e0"/>
          <path id="Path_1088" data-name="Path 1088" d="M272.028,408.126a5.029,5.029,0,0,0-3.131-.457,11.858,11.858,0,0,0-1.213.209,29.77,29.77,0,0,0-5.075,1.957c-1.011.463-2.062.978-3.1,1.494-2.492,1.253-4.9,2.551-6.419,3.386l.7.4c1.52-.835,3.914-2.133,6.419-3.379,1.037-.522,2.088-1.031,3.1-1.5a29.649,29.649,0,0,1,5.075-1.957,10.779,10.779,0,0,1,1.213-.209,5.049,5.049,0,0,1,3.138.457Z" transform="translate(-226.063 -380.57)" fill="#e0e0e0"/>
          <path id="Path_1089" data-name="Path 1089" d="M269.595,406.719a5.1,5.1,0,0,0-3.138-.45,9.486,9.486,0,0,0-1.213.209,29.647,29.647,0,0,0-5.075,1.957c-1,.47-2.061.979-3.1,1.494-2.492,1.253-4.9,2.551-6.419,3.386l.7.411c1.527-.841,3.914-2.14,6.426-3.386,1.037-.522,2.088-1.031,3.1-1.494a29.738,29.738,0,0,1,5.069-1.957c.437-.1.842-.163,1.213-.209a5.043,5.043,0,0,1,3.138.457Z" transform="translate(-225.214 -380.083)" fill="#e0e0e0"/>
          <path id="Path_1090" data-name="Path 1090" d="M267.158,405.315a5.043,5.043,0,0,0-3.138-.457,10.773,10.773,0,0,0-1.213.209,30.177,30.177,0,0,0-5.069,1.957c-1.011.47-2.062.979-3.1,1.5-2.5,1.246-4.9,2.544-6.419,3.379l.7.411c1.52-.835,3.914-2.133,6.419-3.386,1.037-.515,2.088-1.031,3.1-1.494a29.568,29.568,0,0,1,5.075-1.957,12.059,12.059,0,0,1,1.207-.209,5.043,5.043,0,0,1,3.138.457Z" transform="translate(-224.37 -379.593)" fill="#e0e0e0"/>
          <path id="Path_1091" data-name="Path 1091" d="M264.718,403.905a5.042,5.042,0,0,0-3.138-.457,12.061,12.061,0,0,0-1.207.209,29.572,29.572,0,0,0-5.075,1.957c-1.011.463-2.061.972-3.1,1.494-2.492,1.246-4.9,2.544-6.419,3.386l.7.4c1.52-.835,3.914-2.133,6.419-3.379,1.037-.522,2.088-1.031,3.1-1.5a29.645,29.645,0,0,1,5.075-1.957,9.144,9.144,0,0,1,1.213-.209,5.083,5.083,0,0,1,3.131.45Z" transform="translate(-223.521 -379.103)" fill="#e0e0e0"/>
          <path id="Path_1092" data-name="Path 1092" d="M259.851,402.453a10.779,10.779,0,0,0-1.213.209,46.226,46.226,0,0,0-8.174,3.444c-2.492,1.246-4.9,2.544-6.419,3.379l-.7-.4c1.52-.835,3.914-2.133,6.419-3.386a46.527,46.527,0,0,1,8.174-3.444,10.433,10.433,0,0,1,1.213-.2,5.037,5.037,0,0,1,3.131.45l.711.411A5.043,5.043,0,0,0,259.851,402.453Z" transform="translate(-222.673 -378.615)" fill="#e0e0e0"/>
          <path id="Path_1093" data-name="Path 1093" d="M257.411,401.043c-.372.046-.776.111-1.213.209a46.006,46.006,0,0,0-8.168,3.444c-2.5,1.246-4.9,2.544-6.419,3.386l-.711-.411c1.527-.835,3.914-2.133,6.419-3.379a46.23,46.23,0,0,1,8.174-3.444,10.774,10.774,0,0,1,1.213-.209,5.042,5.042,0,0,1,3.138.457l.692.4A5.043,5.043,0,0,0,257.411,401.043Z" transform="translate(-221.825 -378.126)" fill="#e0e0e0"/>
          <path id="Path_1094" data-name="Path 1094" d="M254.975,399.64a10.348,10.348,0,0,0-1.207.2,46.325,46.325,0,0,0-8.174,3.444c-2.492,1.253-4.9,2.551-6.419,3.386l-.7-.4c1.52-.842,3.914-2.14,6.419-3.386a45.83,45.83,0,0,1,8.174-3.444,12.067,12.067,0,0,1,1.207-.209,5.043,5.043,0,0,1,3.138.457l.7.4a5.049,5.049,0,0,0-3.138-.45Z" transform="translate(-220.98 -377.636)" fill="#e0e0e0"/>
          <path id="Path_1095" data-name="Path 1095" d="M252.541,398.23a10.532,10.532,0,0,0-1.213.209,46.025,46.025,0,0,0-8.174,3.444c-2.492,1.246-4.9,2.544-6.419,3.379l-.7-.4c1.52-.835,3.914-2.133,6.419-3.386a46.321,46.321,0,0,1,8.174-3.444,12.073,12.073,0,0,1,1.207-.209,5.042,5.042,0,0,1,3.138.457l.711.411A5.056,5.056,0,0,0,252.541,398.23Z" transform="translate(-220.132 -377.145)" fill="#e0e0e0"/>
          <path id="Path_1096" data-name="Path 1096" d="M250.1,396.824c-.372.046-.776.111-1.213.209a46.231,46.231,0,0,0-8.174,3.444c-2.492,1.246-4.893,2.544-6.419,3.386l-.7-.411c1.52-.835,3.914-2.133,6.419-3.379a45.537,45.537,0,0,1,8.174-3.445,9.5,9.5,0,0,1,1.213-.209,5.1,5.1,0,0,1,3.138.45l.7.411a5.043,5.043,0,0,0-3.138-.457Z" transform="translate(-219.284 -376.659)" fill="#e0e0e0"/>
          <path id="Path_1097" data-name="Path 1097" d="M247.661,395.413a12.041,12.041,0,0,0-1.207.209,46.314,46.314,0,0,0-8.174,3.444c-2.5,1.253-4.9,2.551-6.419,3.386l-.711-.411c1.527-.835,3.914-2.133,6.426-3.379a46,46,0,0,1,8.168-3.445,10.787,10.787,0,0,1,1.213-.209,5.043,5.043,0,0,1,3.138.457l.7.4A5.043,5.043,0,0,0,247.661,395.413Z" transform="translate(-218.435 -376.169)" fill="#e0e0e0"/>
          <path id="Path_1098" data-name="Path 1098" d="M245.2,394.01a9.132,9.132,0,0,0-1.213.209,45.345,45.345,0,0,0-8.174,3.444c-2.492,1.246-4.9,2.544-6.419,3.379l-.7-.4c1.52-.842,3.914-2.14,6.419-3.386a45.824,45.824,0,0,1,8.174-3.444,12.047,12.047,0,0,1,1.207-.209,5.042,5.042,0,0,1,3.138.457l.7.4A5.082,5.082,0,0,0,245.2,394.01Z" transform="translate(-217.58 -375.678)" fill="#e0e0e0"/>
          <path id="Path_1099" data-name="Path 1099" d="M242.791,392.6a10.78,10.78,0,0,0-1.213.209,46.016,46.016,0,0,0-8.174,3.444c-2.492,1.246-4.9,2.544-6.419,3.379l-.7-.4c1.52-.835,3.914-2.133,6.419-3.386a46.527,46.527,0,0,1,8.174-3.444,10.232,10.232,0,0,1,1.213-.2,5.036,5.036,0,0,1,3.131.45l.711.411A5.049,5.049,0,0,0,242.791,392.6Z" transform="translate(-216.742 -375.191)" fill="#e0e0e0"/>
          <path id="Path_1100" data-name="Path 1100" d="M240.351,391.193c-.372.046-.776.111-1.213.209a46,46,0,0,0-8.168,3.444c-2.5,1.246-4.9,2.544-6.426,3.386l-.7-.411c1.52-.835,3.914-2.133,6.419-3.379A46.236,46.236,0,0,1,238.433,391a10.788,10.788,0,0,1,1.213-.209,5.043,5.043,0,0,1,3.138.457l.7.4a5.043,5.043,0,0,0-3.138-.457Z" transform="translate(-215.894 -374.702)" fill="#e0e0e0"/>
          <path id="Path_1101" data-name="Path 1101" d="M300.08,403.24a10.165,10.165,0,0,0-2.518,2.153l-.652-.372a10.163,10.163,0,0,1,2.518-2.153l18.09-10.438.652.378Z" transform="translate(-241.296 -375.299)" fill="#e0e0e0"/>
          <path id="Path_1102" data-name="Path 1102" d="M297.644,401.79a10.118,10.118,0,0,0-2.512,2.153l-.652-.372a9.983,9.983,0,0,1,2.512-2.153l18.1-10.438.652.372Z" transform="translate(-240.451 -374.795)" fill="#e0e0e0"/>
          <path id="Path_1103" data-name="Path 1103" d="M295.21,400.38a10.282,10.282,0,0,0-2.518,2.153l-.652-.372a10.282,10.282,0,0,1,2.518-2.153l18.09-10.438.652.378Z" transform="translate(-239.603 -374.305)" fill="#e0e0e0"/>
          <path id="Path_1104" data-name="Path 1104" d="M292.774,398.98a9.983,9.983,0,0,0-2.512,2.153l-.652-.378a10.091,10.091,0,0,1,2.512-2.146l18.1-10.438.652.372Z" transform="translate(-238.758 -373.818)" fill="#e0e0e0"/>
          <path id="Path_1105" data-name="Path 1105" d="M290.311,397.57a10.277,10.277,0,0,0-2.518,2.153l-.652-.372a10.281,10.281,0,0,1,2.518-2.153l18.1-10.438.652.372Z" transform="translate(-237.9 -373.328)" fill="#e0e0e0"/>
          <path id="Path_1106" data-name="Path 1106" d="M287.9,396.17a9.983,9.983,0,0,0-2.512,2.153l-.652-.378a10.093,10.093,0,0,1,2.512-2.146l18.1-10.438.652.372Z" transform="translate(-237.065 -372.841)" fill="#e0e0e0"/>
          <path id="Path_1107" data-name="Path 1107" d="M285.474,394.76a10.137,10.137,0,0,0-2.512,2.153l-.652-.372a10,10,0,0,1,2.512-2.153l18.1-10.438.652.372Z" transform="translate(-236.221 -372.351)" fill="#e0e0e0"/>
          <path id="Path_1108" data-name="Path 1108" d="M283.034,393.356a10.094,10.094,0,0,0-2.512,2.146l-.652-.372a10.254,10.254,0,0,1,2.512-2.153l18.1-10.438.652.372Z" transform="translate(-235.372 -371.861)" fill="#e0e0e0"/>
          <path id="Path_1109" data-name="Path 1109" d="M280.6,391.95a10,10,0,0,0-2.512,2.153l-.652-.372a10,10,0,0,1,2.512-2.153l18.1-10.438.652.372Z" transform="translate(-234.528 -371.374)" fill="#e0e0e0"/>
          <path id="Path_1110" data-name="Path 1110" d="M278.171,390.546a10.118,10.118,0,0,0-2.518,2.146l-.652-.372a10.163,10.163,0,0,1,2.518-2.153l18.09-10.438.652.372Z" transform="translate(-233.679 -370.884)" fill="#e0e0e0"/>
          <path id="Path_1111" data-name="Path 1111" d="M275.734,389.14a10.117,10.117,0,0,0-2.512,2.153l-.652-.372a9.979,9.979,0,0,1,2.512-2.153l18.1-10.438.652.372Z" transform="translate(-232.835 -370.397)" fill="#e0e0e0"/>
          <path id="Path_1112" data-name="Path 1112" d="M273.31,387.73a10.28,10.28,0,0,0-2.518,2.153l-.652-.372a10.281,10.281,0,0,1,2.518-2.153l18.1-10.438.652.378Z" transform="translate(-231.99 -369.907)" fill="#e0e0e0"/>
          <path id="Path_1113" data-name="Path 1113" d="M270.864,386.33a9.982,9.982,0,0,0-2.512,2.153l-.652-.378a10.093,10.093,0,0,1,2.512-2.146l18.1-10.438.652.372Z" transform="translate(-231.142 -369.42)" fill="#e0e0e0"/>
          <path id="Path_1114" data-name="Path 1114" d="M268.43,384.92a10.281,10.281,0,0,0-2.518,2.153l-.652-.372a10.283,10.283,0,0,1,2.518-2.153l18.1-10.438.652.372Z" transform="translate(-230.293 -368.93)" fill="#e0e0e0"/>
          <path id="Path_1115" data-name="Path 1115" d="M265.994,383.52a9.981,9.981,0,0,0-2.512,2.153l-.652-.378a10.091,10.091,0,0,1,2.512-2.146l18.1-10.438.652.372Z" transform="translate(-229.449 -368.444)" fill="#e0e0e0"/>
          <path id="Path_1116" data-name="Path 1116" d="M263.564,382.11a10.138,10.138,0,0,0-2.512,2.153l-.652-.372a10,10,0,0,1,2.512-2.153l18.1-10.438.652.372Z" transform="translate(-228.604 -367.953)" fill="#e0e0e0"/>
          <path id="Path_1117" data-name="Path 1117" d="M261.131,380.71a10,10,0,0,0-2.518,2.146l-.652-.372a10,10,0,0,1,2.518-2.146l18.09-10.438.652.372Z" transform="translate(-227.756 -367.467)" fill="#e0e0e0"/>
          <path id="Path_1118" data-name="Path 1118" d="M330.68,397.743l4.227-2.238.007-.346Z" transform="translate(-253.036 -376.248)" fill="#e6e6e6"/>
          <path id="Path_1119" data-name="Path 1119" d="M333.409,397.464l-7.059,3.947,7.059-4.2Z" transform="translate(-251.531 -376.961)" fill="#e6e6e6"/>
          <path id="Path_1120" data-name="Path 1120" d="M225.54,394.292c3.816-2.016,8.924-4.527,11.619-5.049a6.252,6.252,0,0,1,4.325.339h0l30.85,17.81a5,5,0,0,0-3.138-.45s-15.265-9.322-25.09-12.506A31.815,31.815,0,0,0,225.54,394.292Z" transform="translate(-216.485 -374.121)" opacity="0.02"/>
        </g>
        <path id="Path_1121" data-name="Path 1121" d="M104.657,225.806a40.827,40.827,0,0,1-2.538,7.059c-.652,1.4-1.52,3.608-3.125,3.5.111-.378.209-.75.287-1.1,0,0-.1-1.507-5-2.727s-6.191,0-6.191,0l-.215.815a24.247,24.247,0,0,1-2.518-.933c-1.142-.509-2.975-1.357-3.588-2.512a4.39,4.39,0,0,1-.4-1.383c-.163-.933-.333-1.859-.5-2.792a12.76,12.76,0,0,1-.294-3.914,2.975,2.975,0,0,1,1.337-2.329,3.373,3.373,0,0,1,1.5-.294c1.781-.085,4.038-.848,5.806-1.018,1.65-.163,3.262-.548,4.9-.692a14.313,14.313,0,0,1,4.984.652C102.576,219.23,105.584,222.381,104.657,225.806Z" transform="translate(-47.986 -198.733)" fill="#455a64"/>
        <path id="Path_1122" data-name="Path 1122" d="M83.482,228.71c.294-3.366.4-8.37.4-8.37h0l-.287.059c-1.748.287-3.953,1.2-5.721,1.416a3.294,3.294,0,0,0-1.474.4,2.975,2.975,0,0,0-1.174,2.42,12.95,12.95,0,0,0,.568,3.914l.652,2.746a4.7,4.7,0,0,0,.5,1.357c.7,1.1,2.609,1.82,3.758,2.251a23.767,23.767,0,0,0,2.577.757l.163-.829a34.817,34.817,0,0,1,.039-6.119Z" transform="translate(-46.14 -199.732)" fill="#37474f"/>
        <path id="Path_1123" data-name="Path 1123" d="M69.825,240.15l-2.2-8.187,12.734-.333,2.74,7.554s-1.174,1.194-1.846,2a7.933,7.933,0,0,1-9.59,2.146,3.217,3.217,0,0,1-.952-.652Z" transform="translate(-43.495 -203.657)" fill="#ffa8a7"/>
        <path id="Path_1124" data-name="Path 1124" d="M30.711,194.61c-.267,2.505.072,7.75,3.327,10.8s10.953,7.117,14.111,8.944c4.084,2.362,6.824,7.4,6.824,7.4s1.957,2.309,7.509,1.468c3.914-.594,5.656-2.153,6.2-3.262,0,0,.157-1.814.274-2.838a34.425,34.425,0,0,0,.046-9.133Z" transform="translate(-30.639 -190.788)" fill="#455a64"/>
        <path id="Path_1125" data-name="Path 1125" d="M67.15,209.137c-3.216,2.394-8.631,2.975-14.9-.652s-14.678-7.456-17.946-9.968c-4.416-3.392-6.772-10.438,5.369-9.714,9.035.509,13.98,7.248,18.468,8.957S73.367,204.472,67.15,209.137Z" transform="translate(-30.669 -188.751)" fill="#37474f"/>
        <path id="Path_1126" data-name="Path 1126" d="M91.928,299.178c-7.176-3.366-9.009-4.606-10.823-7.672-3.138-5.336-6.745-30.824-10.705-50.382,1.892,2.179,12.167-.281,12.643-2.825,0,0,16.707,34.771,19.127,47.107,8.135,1.22,20.439,3.073,24.392,3.914,19.643,4.312,24.4,13.125,28.632,20.53L141.54,323.635C128.023,316.029,99.065,302.538,91.928,299.178Z" transform="translate(-44.461 -205.976)" fill="#1e5d89"/>
        <path id="Path_1127" data-name="Path 1127" d="M91.928,299.178c-7.176-3.366-9.009-4.606-10.823-7.672-3.138-5.336-6.745-30.824-10.705-50.382,1.892,2.179,12.167-.281,12.643-2.825,0,0,16.707,34.771,19.127,47.107,8.135,1.22,20.439,3.073,24.392,3.914,19.643,4.312,24.4,13.125,28.632,20.53L141.54,323.635C128.023,316.029,99.065,302.538,91.928,299.178Z" transform="translate(-44.461 -205.976)" opacity="0.4"/>
        <path id="Path_1128" data-name="Path 1128" d="M102.5,243c-.078.352-.176.724-.287,1.1-.652,2.551-1.376,5.473-1.39,5.7L89.79,246.074l1.3-4.978.215-.815s1.3-1.22,6.191,0S102.5,243,102.5,243Z" transform="translate(-51.202 -206.476)" fill="#ffa8a7"/>
        <path id="Path_1129" data-name="Path 1129" d="M120.082,337.436C97.8,329.8,72.074,316.5,67.129,309.907s13.9-61.544,13.9-61.544c1.54-1.455,12.441.868,12.245,3.914-1.07,15.415-.124,35.743-4.749,44.883a163.224,163.224,0,0,1,23.616,4.567c12-3.842,22.272,2.316,22.272,2.316Z" transform="translate(-43.037 -209.319)" fill="#1e5d89"/>
        <path id="Path_1130" data-name="Path 1130" d="M120.082,337.436C97.8,329.8,72.074,316.5,67.129,309.907s13.9-61.544,13.9-61.544c1.54-1.455,12.441.868,12.245,3.914-1.07,15.415-.124,35.743-4.749,44.883a163.224,163.224,0,0,1,23.616,4.567c12-3.842,22.272,2.316,22.272,2.316Z" transform="translate(-43.037 -209.319)" opacity="0.3"/>
        <path id="Path_1131" data-name="Path 1131" d="M84.05,320.937c6.876.561,10.647-1.507,10.647-1.507A28.43,28.43,0,0,0,97.019,312C94.971,317.989,84.05,320.937,84.05,320.937Z" transform="translate(-49.207 -231.597)" opacity="0.05"/>
        <path id="Path_1132" data-name="Path 1132" d="M194.926,293.684c-7.652,3.131-10.81,3.986-14.482,5.871-4.09,2.1-5.323,4.978-8.089,9.009-2.675,2.812-5.408,4.038-6.954,3.673-2.668-.241-12.91,3.914-17.986,13.863-5.4,10.549-4.319,21.189-.809,27.073,8.135,2.525,17.79,5.871,34.014,4.7,7.4-.548,18.384-7.457,22.924-11.912,10.2-10,13.745-18.123,16.27-30.348C222.913,300.547,215.867,285.079,194.926,293.684Z" transform="translate(-69.933 -224.371)" fill="#455a64"/>
        <circle id="Ellipse_921" data-name="Ellipse 921" cx="15.128" cy="15.128" r="15.128" transform="translate(129.741 43.415) rotate(-28.63)" fill="#263238"/>
        <path id="Path_1133" data-name="Path 1133" d="M226.726,286.42,223.2,294.9c-.952,2.609-.235,7.541,6.113,9.948a7.176,7.176,0,0,0,7.085-.835l3.738-5.4Z" transform="translate(-97.46 -222.704)" fill="#ffa8a7"/>
        <path id="Path_1134" data-name="Path 1134" d="M222.24,276a36.086,36.086,0,0,0,1.618,5.943,6.132,6.132,0,0,0,4.469,3.262l.5-5.7Z" transform="translate(-97.247 -219.082)" fill="#263238"/>
        <path id="Path_1135" data-name="Path 1135" d="M225.133,252.314a5.376,5.376,0,0,0-4.567,1.3c-2.029,1.827-1.35,7.991.652,14.117l4.332.783Z" transform="translate(-96.239 -210.818)" fill="#263238"/>
        <path id="Path_1136" data-name="Path 1136" d="M220.625,269.082a3.781,3.781,0,0,0,.809.437,6.877,6.877,0,0,0,2.8.561,2.831,2.831,0,0,0,2.805-1.781l-.418,4.658-1.076,12.232a14,14,0,0,0,1.781-.17,36,36,0,0,0,5.049-1.213c1.553-.476,2.564-.894,2.564-.894a46.372,46.372,0,0,0,6.119,2.016h0a30.364,30.364,0,0,0,6.413.737c3.542-.313,5.937-2.949,7.248-6.68,2.094-6,3.06-10.888,2.375-23-.757-13.269-16.055-14.385-24.653-9.7s-5.7,15.859-5.7,15.859a10.774,10.774,0,0,0-1.957-4.143c-1.011-1.194-5.069-1.957-7.052,1.611C215.9,262.9,218.179,267.458,220.625,269.082Z" transform="translate(-95.449 -207.878)" fill="#ffa8a7"/>
        <path id="Path_1137" data-name="Path 1137" d="M239.426,249.093a6.849,6.849,0,0,1-.209,1.468,2.615,2.615,0,0,1-.046.326,16.029,16.029,0,0,1-5.389,9.466,9.246,9.246,0,0,1-1.3.946c-.489.294-1.3.718-1.82.4s-.5-.8-.548-1.363a21.62,21.62,0,0,0-.326-2.538c-1.3-3.869-2.492-4.736-3.914-5.069.2-1.272.47-2.531.685-3.712s.437-2.29.652-3.431c.294-1.435-.307-2.844-.261-4.325a5.428,5.428,0,0,1,1.148-3.347,6.439,6.439,0,0,1,2.081-1.5c3.262-1.618,6.974-1.957,10.5-2.87,2.009-.5,3.966-1.168,5.943-1.748a7.214,7.214,0,0,1,4.09-.352c1.331.4,2.433,1.859,1.957,3.164a5.183,5.183,0,0,1,5.721-.313,4.475,4.475,0,0,1,2.329,4.71,5.662,5.662,0,0,1,3.666.718,3.223,3.223,0,0,1,1.507,3.262,4.345,4.345,0,0,1-1.4,2.114,19.359,19.359,0,0,1-6.276,3.536,27.079,27.079,0,0,1-7.828,1.735A27.439,27.439,0,0,1,239.426,249.093Z" transform="translate(-98.509 -203.533)" fill="#263238"/>
        <path id="Path_1138" data-name="Path 1138" d="M225.412,251.356l-5.1-3.157a2.916,2.916,0,0,1,4.084-1.07,3.164,3.164,0,0,1,1.018,4.227Z" transform="translate(-96.576 -208.894)" fill="#263238"/>
        <path id="Path_1139" data-name="Path 1139" d="M232.75,292.09s.7,4.169,2.2,6.367c.5.731,2.9,2.981,7.176,4.273l1.3-1.885L240.4,299.7a16.749,16.749,0,0,1-3.523-1.892A17.527,17.527,0,0,1,232.75,292.09Z" transform="translate(-100.9 -224.675)" fill="#f28f8f"/>
        <path id="Path_1140" data-name="Path 1140" d="M257.022,280a1.579,1.579,0,1,1-1.468-1.735A1.6,1.6,0,0,1,257.022,280Z" transform="translate(-108.243 -219.869)" fill="#263238"/>
        <path id="Path_1141" data-name="Path 1141" d="M254.756,271.19l-3.732.92a2.022,2.022,0,0,1,1.455-2.388,1.872,1.872,0,0,1,2.277,1.468Z" transform="translate(-107.237 -216.881)" fill="#263238"/>
        <path id="Path_1142" data-name="Path 1142" d="M254.763,295.47l3.5,1.579a1.885,1.885,0,0,1-2.512,1.031A2.009,2.009,0,0,1,254.763,295.47Z" transform="translate(-108.496 -225.85)" fill="#f28f8f"/>
        <path id="Path_1143" data-name="Path 1143" d="M275.987,271.219l-3.5-1.683a1.866,1.866,0,0,1,2.531-.946A2.035,2.035,0,0,1,275.987,271.219Z" transform="translate(-114.715 -216.441)" fill="#263238"/>
        <path id="Path_1144" data-name="Path 1144" d="M273.692,279.23a1.579,1.579,0,1,1-1.468-1.742,1.6,1.6,0,0,1,1.468,1.742Z" transform="translate(-114.039 -219.598)" fill="#263238"/>
        <path id="Path_1145" data-name="Path 1145" d="M264.157,278.24l-1.487,9.433,5.773-.235Z" transform="translate(-111.302 -219.86)" fill="#f28f8f"/>
        <path id="Path_1146" data-name="Path 1146" d="M323.222,385.831c-.652-1.585-.437-4.208-1.461-6.524-.7-1.579-2.14-2.818-4.286-4.247L316,379.235l1.761,1.018c.652.979.907,2.714,1.827,4.4C321.128,387.416,323.828,387.24,323.222,385.831Z" transform="translate(-129.841 -253.519)" fill="#ffa8a7"/>
        <path id="Path_1147" data-name="Path 1147" d="M189.037,304.55c-10.288,2.5-12.395,7.176-16.6,22.18-2.707,9.7-7.346,31.45-7.828,35.73-.652,5.734-.581,6.224,5.16,10.118,5.336,3.621,34.132,19.656,40.668,21.887s14.385.809,14.385.809l-11.782-6.83s.992-.346,3.947-1.22,4.443-1.35,5.526-2.427.2-2.244-3.3-1.957-7.828-1.82-12.336-1.239l-23.231-19.14,7.313-31.633S197.211,309.032,189.037,304.55Z" transform="translate(-77.117 -229.007)" fill="#ffa8a7"/>
        <path id="Path_1148" data-name="Path 1148" d="M192.676,301.55c-10.542,2.773-15,6.328-17.327,12.917-2.29,6.458-6.4,26.61-6.4,26.61a22.191,22.191,0,0,0,9.635,5.075c6.374,1.709,10.529,0,10.529,0s5.682-20.712,6.765-25.442C198.848,307.806,192.676,301.55,192.676,301.55Z" transform="translate(-78.721 -227.964)" fill="#1e5d89"/>
      </g>
    </g>
  </g>
</svg>
