<svg xmlns="http://www.w3.org/2000/svg" width="154.283" height="146" viewBox="0 0 154.283 146">
  <path id="Union_1" data-name="Union 1" d="M152.183,146V122.748h14.405v2.611h-11.5v7.46h10.909V135.4H155.084v7.992h11.5V146Zm-16.593,0V125.359h-7.331v-2.611h17.564v2.611H138.49V146ZM119,146V122.748h2.9V146Zm-10.632,0-12.73-18.192H95.49V146H92.622V122.748h2.82L108.171,141h.145V122.748h2.868V146ZM81.91,146V122.748h2.9V146Zm-20.719,0V122.748H75.307v2.611H64.092v7.992h10.3v2.578h-10.3V146ZM50.56,146l-12.73-18.192h-.145V146H34.817V122.748h2.82L50.367,141h.145V122.748H53.38V146ZM24.1,146V122.748h2.9V146Zm17.95-45.562L19,60.507,42.253,20.23H87.514l-8.72,16.194H51.388L38.1,59.262,52.219,83.345H78.794l26.574-43.184,6.229,19.1L88.344,100.437Zm62.716-20.23,8.72-16.194h27.4l13.287-22.838L140.064,17.093H113.49L86.915,60.276l-6.228-19.1L103.939,0H150.23l23.054,39.93L150.03,80.207Z" transform="translate(-19)" fill="#333"/>
</svg>
